<?xml version="1.0" standalone="no"?>
<!DOCTYPE svg PUBLIC "-//W3C//DTD SVG 20010904//EN"
 "http://www.w3.org/TR/2001/REC-SVG-20010904/DTD/svg10.dtd">
<svg version="1.0" xmlns="http://www.w3.org/2000/svg"
 width="2363.000000pt" height="2363.000000pt" viewBox="0 0 2363.000000 2363.000000"
 preserveAspectRatio="xMidYMid meet">

<g transform="translate(0.000000,2363.000000) scale(0.100000,-0.100000)"
fill="#000000" stroke="none">
<path d="M0 11815 l0 -11815 11815 0 11815 0 0 11815 0 11815 -11815 0 -11815
0 0 -11815z m11965 4625 c61 -35 121 -70 134 -78 l25 -15 -30 -23 c-16 -13
-32 -24 -36 -24 -4 0 -58 30 -120 66 -62 37 -118 67 -124 67 -9 0 -277 -152
-909 -518 -82 -48 -404 -233 -715 -413 -311 -179 -749 -432 -975 -563 l-410
-237 -3 -1465 c-2 -1164 1 -1467 10 -1475 11 -8 789 -458 1538 -890 91 -52
334 -193 540 -312 206 -119 459 -265 563 -325 103 -59 187 -112 187 -117 0 -4
-15 -16 -34 -24 l-34 -17 -118 68 c-66 38 -272 157 -459 265 -187 108 -473
273 -635 367 -162 94 -572 330 -910 525 -338 195 -639 368 -667 384 l-53 29 0
1517 0 1516 178 103 c97 56 233 135 302 175 128 74 800 462 1450 837 201 116
451 260 555 321 600 347 598 346 620 332 11 -7 70 -41 130 -76z m521 -301 c87
-51 377 -218 644 -372 267 -154 602 -347 745 -430 346 -200 807 -466 928 -535
l97 -56 0 -162 0 -162 -40 15 -39 16 -3 126 -3 125 -140 82 c-77 45 -291 168
-475 274 -184 106 -387 223 -450 260 -63 37 -221 128 -350 202 -129 75 -435
251 -679 392 l-444 256 -176 -101 c-97 -56 -228 -132 -291 -169 -63 -37 -263
-152 -445 -257 -643 -371 -1122 -648 -1260 -728 -77 -44 -296 -171 -487 -280
l-347 -200 -1 -1362 c0 -750 -2 -1363 -4 -1363 -3 0 -21 9 -40 21 l-36 21 0
1362 0 1362 1168 674 c642 371 1336 772 1542 891 357 206 376 216 401 203 14
-7 97 -54 185 -105z m-6 -534 c217 -126 438 -253 490 -283 52 -30 196 -113
320 -185 247 -143 295 -170 870 -503 217 -125 472 -271 565 -325 l170 -97 3
-1515 2 -1515 -157 -90 c-87 -49 -212 -121 -278 -159 -443 -257 -976 -564
-1005 -581 -19 -10 -395 -228 -835 -482 -440 -255 -805 -463 -811 -463 -14 0
-304 165 -304 173 0 4 15 15 34 25 l34 18 117 -66 117 -66 196 113 c267 153
1454 838 1727 996 320 185 537 310 827 477 l257 148 1 1470 0 1470 -268 154
c-147 85 -368 213 -492 284 -124 71 -412 238 -640 369 -631 365 -899 520
-1199 693 l-273 158 38 23 c37 23 38 23 69 5 16 -10 208 -121 425 -246z m-720
-1000 l0 -125 180 0 180 0 0 125 0 125 90 0 89 0 3 -131 3 -132 101 -23 c122
-27 218 -66 321 -130 141 -88 225 -195 271 -347 22 -72 25 -100 25 -237 0
-128 -4 -169 -22 -235 -46 -171 -123 -279 -261 -369 -104 -68 -137 -81 -330
-129 l-44 -11 119 -17 c229 -33 404 -107 500 -210 170 -184 233 -576 139 -858
-80 -238 -244 -384 -549 -486 -66 -22 -240 -64 -267 -65 -5 0 -8 -54 -8 -120
l0 -120 -90 0 -90 0 0 110 0 110 -180 0 -180 0 0 -110 0 -110 -95 0 -95 0 0
110 0 110 -70 0 -70 0 0 170 0 170 273 0 c311 0 461 11 593 45 291 74 444 256
444 530 0 268 -137 438 -405 505 -129 31 -255 40 -590 40 l-315 0 0 169 0 169
333 5 c348 5 396 11 520 57 131 49 242 154 287 269 28 71 37 191 20 273 -28
147 -110 250 -253 319 -142 68 -223 80 -589 86 l-318 6 0 168 0 169 70 0 70 0
0 125 0 125 95 0 95 0 0 -125z m-610 -315 l0 -190 -130 0 -130 0 0 190 0 190
130 0 130 0 0 -190z m3280 -1452 c0 -1161 -2 -1368 -14 -1368 -8 0 -13 -8 -12
-17 1 -11 -26 -32 -79 -63 -73 -42 -1575 -910 -1705 -985 -167 -96 -571 -329
-898 -519 -331 -191 -376 -214 -395 -204 -12 6 -175 100 -362 208 -440 254
-1457 841 -1790 1033 -143 82 -302 174 -352 204 l-93 54 0 160 c0 87 3 159 6
159 3 0 19 -8 35 -17 l28 -17 3 -120 3 -120 340 -196 c187 -108 651 -376 1030
-595 380 -219 799 -461 931 -537 l241 -139 249 144 c137 79 458 264 714 412
256 148 533 308 615 355 83 48 386 224 675 390 289 167 577 333 640 370 l115
66 3 1372 2 1372 35 -17 35 -17 0 -1368z m-3050 1173 c304 -53 581 -180 750
-342 29 -28 50 -52 47 -55 -3 -3 -85 11 -183 30 -276 54 -513 86 -691 93
l-163 6 0 -1201 0 -1202 -125 0 -125 0 0 1200 0 1200 -42 -6 c-263 -38 -604
-137 -852 -246 -49 -21 -91 -36 -94 -33 -11 11 73 118 146 186 92 86 267 204
383 258 112 53 273 106 379 125 119 22 413 15 570 -13z m-3726 -5292 c36 -43
35 -91 -3 -130 -52 -51 -133 -36 -161 30 -27 66 20 131 94 131 37 0 48 -5 70
-31z m-3378 -23 c97 -31 213 -104 272 -171 23 -26 42 -51 42 -54 -1 -3 -22
-23 -49 -43 l-48 -37 -59 60 c-67 68 -163 121 -251 139 -83 18 -245 8 -318
-18 -79 -29 -180 -99 -229 -159 -129 -159 -152 -401 -55 -583 16 -31 57 -84
90 -117 105 -106 224 -153 389 -153 149 0 268 45 377 145 l58 52 47 -36 c27
-19 48 -38 48 -42 0 -4 -30 -35 -67 -68 -80 -74 -193 -133 -298 -156 -105 -24
-313 -17 -405 13 -190 62 -342 216 -403 407 -18 59 -22 93 -22 215 0 126 3
154 23 212 60 173 217 332 386 388 101 33 144 39 271 36 97 -3 136 -8 201 -30z
m834 -214 l0 -248 55 53 c84 78 149 106 261 111 83 4 97 2 153 -23 77 -35 140
-101 172 -181 22 -57 23 -70 27 -391 l4 -333 -60 0 -61 0 -3 318 c-3 309 -4
318 -27 370 -41 90 -108 132 -212 132 -93 0 -196 -58 -249 -139 -52 -82 -60
-137 -60 -423 l0 -258 -65 0 -65 0 0 630 0 630 65 0 65 0 0 -248z m13460 2 l0
-246 51 46 c28 25 80 60 116 78 57 28 79 33 160 36 167 8 290 -45 388 -164
162 -198 148 -472 -31 -652 -179 -179 -456 -186 -630 -16 l-54 52 0 -74 0 -74
-60 0 -60 0 0 630 0 630 60 0 60 0 0 -246z m-8020 151 l0 -65 -245 0 -245 0 0
-190 0 -190 245 0 245 0 0 -60 0 -60 -245 0 -245 0 0 -300 0 -300 -65 0 -65 0
0 615 0 615 310 0 310 0 0 -65z m5730 -490 l0 -555 240 0 240 0 0 -60 0 -60
-300 0 -300 0 0 615 0 615 60 0 60 0 0 -555z m-9508 234 c72 -24 130 -62 181
-118 l37 -41 0 80 0 80 60 0 60 0 0 -455 0 -455 -60 0 -60 0 0 71 0 71 -52
-47 c-191 -167 -465 -161 -637 16 -97 99 -141 207 -141 344 1 129 38 229 120
318 62 68 113 103 192 133 85 31 213 33 300 3z m1885 -7 c59 -31 109 -77 139
-128 43 -73 53 -168 54 -486 l0 -288 -60 0 -60 0 0 263 c-1 144 -5 292 -9 330
-12 90 -45 154 -99 192 -40 28 -50 30 -130 30 -78 0 -93 -3 -140 -29 -107 -60
-159 -151 -173 -304 -4 -53 -8 -184 -9 -289 l0 -193 -60 0 -60 0 0 455 0 455
60 0 60 0 0 -76 0 -76 61 56 c101 94 162 117 294 113 69 -3 100 -8 132 -25z
m2887 -10 c130 -61 237 -198 267 -341 14 -70 7 -191 -16 -256 -24 -68 -79
-152 -134 -203 -165 -155 -456 -157 -630 -6 -171 149 -213 433 -92 623 63 98
179 186 278 211 21 5 88 8 148 7 100 -3 117 -6 179 -35z m1045 27 c17 -6 31
-14 31 -18 0 -4 -12 -27 -28 -51 l-27 -43 -65 -1 c-76 -1 -117 -25 -155 -91
-48 -80 -56 -141 -62 -437 l-6 -278 -58 0 -59 0 0 455 0 455 60 0 60 0 0 -62
0 -63 36 43 c52 62 126 102 190 102 28 0 65 -5 83 -11z m911 -26 c36 -17 89
-54 118 -81 l52 -49 0 74 0 73 60 0 60 0 0 -439 c0 -249 -4 -461 -10 -491 -43
-225 -231 -353 -495 -336 -201 12 -326 84 -408 235 l-28 51 70 0 c39 0 71 -4
71 -9 0 -4 18 -29 40 -54 153 -173 519 -142 608 51 19 42 26 77 30 149 l5 94
-44 -41 c-24 -23 -77 -57 -118 -77 -64 -31 -87 -37 -166 -41 -109 -5 -175 8
-260 52 -272 141 -326 516 -105 737 101 102 200 140 350 136 94 -3 112 -6 170
-34z m1292 16 c115 -38 210 -123 268 -238 22 -45 50 -155 50 -203 l0 -28 -410
0 c-467 0 -422 11 -395 -95 40 -155 167 -255 323 -255 130 0 232 50 304 149
23 31 42 57 44 59 1 2 25 -8 53 -23 l52 -26 -23 -41 c-65 -118 -199 -208 -342
-229 -301 -45 -545 164 -546 467 0 227 131 414 330 470 75 21 221 17 292 -7z
m2869 5 c69 -20 111 -46 177 -108 l52 -49 0 77 0 76 60 0 60 0 0 -455 0 -455
-60 0 -60 0 0 71 0 71 -52 -47 c-191 -167 -464 -161 -637 15 -96 97 -141 208
-141 345 1 133 39 230 127 326 96 103 196 148 334 149 50 0 108 -7 140 -16z
m2455 -19 c38 -19 82 -47 97 -63 l27 -28 -39 -38 -40 -39 -33 28 c-44 37 -105
65 -146 65 -82 0 -151 -72 -138 -144 10 -50 56 -94 168 -156 121 -69 162 -102
196 -158 23 -40 27 -58 27 -122 0 -57 -6 -85 -22 -116 -25 -48 -92 -110 -137
-129 -94 -40 -220 -23 -314 42 -74 51 -77 60 -35 111 l35 42 36 -31 c101 -89
214 -91 290 -5 25 29 32 45 32 80 0 63 -32 103 -125 157 -150 87 -193 119
-224 165 -79 120 -38 281 88 346 80 42 165 40 257 -7z m-12476 -440 l0 -455
-60 0 -60 0 0 455 0 455 60 0 60 0 0 -455z"/>
<path d="M18813 8276 c-144 -47 -239 -165 -251 -312 -11 -143 46 -268 157
-342 181 -121 420 -54 518 146 25 51 28 68 28 157 0 90 -3 106 -29 159 -61
125 -172 198 -306 203 -43 2 -93 -3 -117 -11z"/>
<path d="M6580 8280 c-60 -10 -128 -43 -178 -86 -52 -44 -108 -155 -118 -230
-18 -146 69 -303 207 -375 66 -34 194 -38 272 -9 123 46 205 146 228 278 43
246 -168 463 -411 422z"/>
<path d="M11228 8265 c-173 -66 -272 -260 -224 -440 28 -107 87 -180 184 -227
60 -30 75 -33 157 -33 76 0 98 4 146 26 145 68 228 231 199 392 -15 78 -40
127 -98 189 -71 76 -128 101 -237 105 -61 2 -102 -2 -127 -12z"/>
<path d="M13262 8279 c-117 -20 -230 -113 -271 -224 -33 -87 -31 -196 5 -275
64 -143 222 -220 394 -191 89 14 135 37 193 96 64 64 91 136 90 245 -1 130
-41 218 -132 284 -79 57 -181 81 -279 65z"/>
<path d="M14554 8276 c-103 -26 -179 -89 -224 -187 -11 -24 -20 -50 -20 -56 0
-10 73 -13 330 -13 257 0 330 3 330 13 -1 18 -36 94 -61 129 -24 33 -106 89
-157 106 -54 18 -144 22 -198 8z"/>
<path d="M17477 8280 c-110 -19 -199 -87 -251 -190 -79 -158 -49 -322 81 -440
74 -68 144 -93 248 -88 180 7 307 121 336 298 40 249 -170 462 -414 420z"/>
</g>
</svg>
