<?xml version="1.0" encoding="utf-8"?>
<!-- Generator: Adobe Illustrator 16.0.0, SVG Export Plug-In . SVG Version: 6.00 Build 0)  -->
<!DOCTYPE svg PUBLIC "-//W3C//DTD SVG 1.1//EN" "http://www.w3.org/Graphics/SVG/1.1/DTD/svg11.dtd">
<svg version="1.1" id="图层_1" xmlns="http://www.w3.org/2000/svg" xmlns:xlink="http://www.w3.org/1999/xlink" x="0px" y="0px"
	 width="1133.86px" height="1133.86px" viewBox="0 0 1133.86 1133.86" enable-background="new 0 0 1133.86 1133.86"
	 xml:space="preserve">
<rect y="0.002" width="1133.858" height="1133.858"/>
<g>
	<defs>
		<rect id="SVGID_1_" y="0.002" width="1133.858" height="1133.858"/>
	</defs>
	<clipPath id="SVGID_2_">
		<use xlink:href="#SVGID_1_"  overflow="visible"/>
	</clipPath>
	<path clip-path="url(#SVGID_2_)" fill="#FFFFFF" d="M220.212,727.702l-4.65,3.569c-2.566-3.341-5.647-5.874-9.242-7.598
		c-3.595-1.725-7.544-2.586-11.847-2.586c-4.705,0-9.06,1.13-13.07,3.388c-4.009,2.259-7.116,5.292-9.321,9.102
		c-2.206,3.808-3.308,8.092-3.308,12.85c0,7.189,2.466,13.189,7.397,18.001c4.931,4.81,11.152,7.216,18.663,7.216
		c8.259,0,15.168-3.232,20.728-9.702l4.65,3.528c-2.94,3.743-6.608,6.636-11.005,8.68c-4.397,2.045-9.308,3.067-14.734,3.067
		c-10.317,0-18.456-3.435-24.416-10.304c-4.998-5.8-7.497-12.803-7.497-21.009c0-8.632,3.027-15.896,9.081-21.789
		c6.054-5.894,13.637-8.841,22.752-8.841c5.506,0,10.477,1.089,14.914,3.269C213.743,720.721,217.379,723.774,220.212,727.702"/>
	<path clip-path="url(#SVGID_2_)" fill="#FFFFFF" d="M239.328,715.275h5.613v24.655c2.272-2.992,4.771-5.231,7.497-6.715
		c2.726-1.482,5.68-2.225,8.861-2.225c3.26,0,6.154,0.828,8.68,2.485c2.525,1.657,4.39,3.883,5.593,6.676
		c1.202,2.793,1.804,7.171,1.804,13.13v22.452h-5.613v-20.809c0-5.023-0.201-8.38-0.602-10.063
		c-0.695-2.888-1.958-5.059-3.788-6.517c-1.831-1.456-4.23-2.184-7.197-2.184c-3.395,0-6.435,1.123-9.121,3.368
		c-2.686,2.244-4.457,5.024-5.312,8.338c-0.535,2.139-0.802,6.094-0.802,11.868v15.997h-5.613V715.275z"/>
	<path clip-path="url(#SVGID_2_)" fill="#FFFFFF" d="M341.074,732.112v43.621h-5.533v-7.498c-2.352,2.861-4.992,5.013-7.918,6.456
		c-2.927,1.442-6.128,2.165-9.602,2.165c-6.174,0-11.447-2.238-15.817-6.716c-4.37-4.477-6.555-9.922-6.555-16.338
		c0-6.28,2.205-11.653,6.616-16.117c4.41-4.463,9.715-6.693,15.916-6.693c3.582,0,6.822,0.761,9.722,2.283
		c2.9,1.524,5.446,3.811,7.638,6.856v-8.02H341.074z M318.642,736.402c-3.123,0-6.007,0.769-8.65,2.304
		c-2.643,1.536-4.745,3.692-6.307,6.468c-1.563,2.776-2.342,5.714-2.342,8.811c0,3.069,0.787,6.008,2.362,8.811
		c1.574,2.802,3.691,4.984,6.347,6.547c2.656,1.562,5.506,2.342,8.55,2.342c3.071,0,5.979-0.773,8.729-2.323
		c2.75-1.547,4.865-3.643,6.347-6.286c1.482-2.643,2.223-5.619,2.223-8.93c0-5.046-1.662-9.264-4.986-12.655
		C327.592,738.098,323.501,736.402,318.642,736.402"/>
	<path clip-path="url(#SVGID_2_)" fill="#FFFFFF" d="M363.858,714.152c1.277,0,2.369,0.454,3.273,1.363
		c0.905,0.909,1.357,2.004,1.357,3.287c0,1.258-0.452,2.339-1.357,3.248c-0.904,0.907-1.996,1.362-3.273,1.362
		c-1.251,0-2.329-0.455-3.234-1.362c-0.904-0.909-1.357-1.99-1.357-3.248c0-1.283,0.453-2.378,1.357-3.287
		C361.529,714.606,362.607,714.152,363.858,714.152 M361.072,732.113h5.613v43.621h-5.613V732.113z"/>
	<path clip-path="url(#SVGID_2_)" fill="#FFFFFF" d="M386.563,732.113h5.613v7.817c2.245-2.992,4.731-5.231,7.457-6.715
		c2.726-1.482,5.693-2.225,8.901-2.225c3.26,0,6.153,0.828,8.68,2.486c2.525,1.656,4.389,3.888,5.593,6.693
		c1.202,2.809,1.804,7.177,1.804,13.111v22.452h-5.613v-20.81c0-5.022-0.21-8.379-0.625-10.062c-0.65-2.888-1.898-5.059-3.742-6.517
		c-1.845-1.456-4.251-2.184-7.218-2.184c-3.395,0-6.437,1.122-9.122,3.368c-2.687,2.244-4.458,5.024-5.313,8.338
		c-0.535,2.165-0.802,6.121-0.802,11.868v15.997h-5.613V732.113z"/>
	<polygon clip-path="url(#SVGID_2_)" fill="#FFFFFF" points="476.714,716.758 506.262,716.758 506.262,722.531 482.608,722.531 
		482.608,741.014 506.262,741.014 506.262,746.787 482.608,746.787 482.608,775.733 476.714,775.733 	"/>
	<path clip-path="url(#SVGID_2_)" fill="#FFFFFF" d="M544.462,730.991c6.72,0,12.289,2.433,16.708,7.296
		c4.016,4.438,6.024,9.689,6.024,15.757c0,6.094-2.123,11.42-6.366,15.977c-4.244,4.558-9.7,6.836-16.366,6.836
		c-6.695,0-12.163-2.278-16.407-6.836c-4.244-4.557-6.366-9.883-6.366-15.977c0-6.04,2.008-11.279,6.025-15.717
		C532.131,733.435,537.715,730.991,544.462,730.991 M544.442,736.483c-4.668,0-8.678,1.723-12.031,5.171
		c-3.352,3.448-5.028,7.619-5.028,12.51c0,3.154,0.764,6.095,2.293,8.819c1.528,2.728,3.593,4.832,6.196,6.316
		c2.601,1.482,5.458,2.224,8.57,2.224c3.111,0,5.967-0.741,8.569-2.224c2.603-1.484,4.668-3.589,6.197-6.316
		c1.528-2.725,2.293-5.665,2.293-8.819c0-4.891-1.683-9.062-5.05-12.51C553.085,738.206,549.082,736.483,544.442,736.483"/>
	<path clip-path="url(#SVGID_2_)" fill="#FFFFFF" d="M583.663,732.113h5.733v6.375c1.711-2.511,3.515-4.392,5.412-5.633
		c1.898-1.243,3.875-1.864,5.934-1.864c1.55,0,3.208,0.494,4.971,1.483l-2.925,4.73c-1.177-0.507-2.166-0.761-2.967-0.761
		c-1.872,0-3.677,0.768-5.413,2.305c-1.738,1.537-3.062,3.922-3.971,7.156c-0.694,2.484-1.041,7.511-1.041,15.075v14.754h-5.733
		V732.113z"/>
	<path clip-path="url(#SVGID_2_)" fill="#FFFFFF" d="M656.302,732.112h5.613v34.762c0,6.12-0.535,10.597-1.603,13.431
		c-1.471,4.008-4.024,7.096-7.658,9.26c-3.635,2.165-8.006,3.248-13.11,3.248c-3.742,0-7.103-0.529-10.083-1.587
		c-2.98-1.06-5.407-2.48-7.277-4.263c-1.87-1.783-3.595-4.392-5.172-7.821h6.095c1.658,2.886,3.8,5.025,6.422,6.415
		c2.622,1.389,5.875,2.085,9.755,2.085c3.826,0,7.058-0.713,9.693-2.138c2.637-1.426,4.516-3.217,5.64-5.374
		c1.124-2.159,1.686-5.643,1.686-10.45v-2.246c-2.112,2.674-4.695,4.727-7.746,6.155c-3.049,1.43-6.286,2.145-9.711,2.145
		c-4.014,0-7.786-0.995-11.317-2.986c-3.532-1.991-6.262-4.671-8.188-8.038c-1.926-3.369-2.89-7.069-2.89-11.106
		c0-4.036,1.004-7.798,3.01-11.286c2.007-3.487,4.783-6.248,8.328-8.278c3.545-2.031,7.285-3.046,11.217-3.046
		c3.265,0,6.308,0.674,9.13,2.023c2.823,1.351,5.545,3.574,8.167,6.675V732.112z M639.744,736.402c-3.181,0-6.134,0.77-8.86,2.307
		c-2.726,1.538-4.864,3.663-6.415,6.374c-1.55,2.714-2.324,5.646-2.324,8.801c0,4.785,1.604,8.74,4.811,11.867
		s7.364,4.69,12.468,4.69c5.159,0,9.309-1.55,12.449-4.65c3.14-3.102,4.711-7.177,4.711-12.229c0-3.288-0.722-6.22-2.165-8.801
		c-1.443-2.578-3.488-4.616-6.134-6.113C645.638,737.151,642.792,736.402,639.744,736.402"/>
	<path clip-path="url(#SVGID_2_)" fill="#FFFFFF" d="M718.878,761.26l4.73,2.485c-1.552,3.048-3.345,5.506-5.377,7.377
		c-2.034,1.871-4.321,3.295-6.862,4.271c-2.542,0.975-5.417,1.463-8.628,1.463c-7.116,0-12.681-2.332-16.693-6.996
		c-4.013-4.663-6.021-9.936-6.021-15.816c0-5.533,1.699-10.464,5.098-14.794c4.306-5.506,10.072-8.259,17.295-8.259
		c7.437,0,13.375,2.82,17.815,8.459c3.157,3.982,4.763,8.954,4.816,14.915h-39.251c0.107,5.065,1.726,9.22,4.858,12.459
		c3.131,3.241,6.998,4.86,11.601,4.86c2.22,0,4.381-0.386,6.481-1.158s3.887-1.797,5.358-3.076
		C715.572,766.172,717.165,764.109,718.878,761.26 M718.878,749.512c-0.749-2.991-1.84-5.386-3.272-7.176
		c-1.432-1.791-3.324-3.232-5.68-4.33c-2.355-1.096-4.83-1.644-7.426-1.644c-4.283,0-7.962,1.377-11.039,4.129
		c-2.248,2.006-3.948,5.012-5.098,9.021H718.878z"/>
	<polygon clip-path="url(#SVGID_2_)" fill="#FFFFFF" points="775.593,716.758 781.486,716.758 781.486,770.04 804.179,770.04 
		804.179,775.733 775.593,775.733 	"/>
	<path clip-path="url(#SVGID_2_)" fill="#FFFFFF" d="M864.269,732.112v43.621h-5.532v-7.498c-2.353,2.861-4.991,5.013-7.918,6.456
		c-2.928,1.442-6.129,2.165-9.604,2.165c-6.173,0-11.445-2.238-15.816-6.716c-4.369-4.477-6.555-9.922-6.555-16.338
		c0-6.28,2.206-11.653,6.615-16.117c4.41-4.463,9.716-6.693,15.917-6.693c3.581,0,6.822,0.761,9.723,2.283
		c2.899,1.524,5.445,3.811,7.638,6.856v-8.02H864.269z M841.837,736.402c-3.124,0-6.007,0.769-8.65,2.304
		c-2.643,1.536-4.745,3.692-6.308,6.468c-1.562,2.776-2.341,5.714-2.341,8.811c0,3.069,0.786,6.008,2.362,8.811
		c1.574,2.802,3.69,4.984,6.347,6.547c2.655,1.562,5.506,2.342,8.55,2.342c3.07,0,5.98-0.773,8.731-2.323
		c2.749-1.547,4.863-3.643,6.346-6.286c1.48-2.643,2.223-5.619,2.223-8.93c0-5.046-1.662-9.264-4.985-12.655
		C850.788,738.098,846.696,736.402,841.837,736.402"/>
	<path clip-path="url(#SVGID_2_)" fill="#FFFFFF" d="M885.468,775.734v-60.459h5.613v24.336c2.349-2.888,4.98-5.045,7.891-6.476
		c2.91-1.429,6.102-2.145,9.572-2.145c6.168,0,11.435,2.238,15.8,6.715c4.365,4.478,6.549,9.91,6.549,16.298
		c0,6.308-2.202,11.694-6.608,16.157c-4.406,4.464-9.706,6.695-15.9,6.695c-3.551,0-6.769-0.763-9.651-2.285
		c-2.886-1.523-5.435-3.809-7.651-6.856v8.02H885.468z M907.92,771.444c3.12,0,6-0.769,8.641-2.306
		c2.639-1.537,4.739-3.694,6.299-6.476c1.561-2.779,2.34-5.719,2.34-8.819c0-3.1-0.786-6.054-2.359-8.86
		c-1.572-2.807-3.686-4.992-6.341-6.556c-2.653-1.563-5.486-2.345-8.498-2.345c-3.068,0-5.98,0.781-8.741,2.345
		c-2.76,1.563-4.88,3.668-6.359,6.314c-1.48,2.646-2.221,5.627-2.221,8.94c0,5.052,1.659,9.275,4.98,12.669
		C898.98,769.746,903.066,771.444,907.92,771.444"/>
	<path clip-path="url(#SVGID_2_)" fill="#FFFFFF" d="M971.259,736.883l-3.608,3.729c-3.002-2.913-5.937-4.371-8.803-4.371
		c-1.822,0-3.384,0.602-4.683,1.805c-1.3,1.203-1.95,2.606-1.95,4.21c0,1.416,0.535,2.766,1.607,4.049
		c1.07,1.311,3.32,2.848,6.749,4.611c4.178,2.165,7.018,4.25,8.519,6.254c1.472,2.031,2.209,4.317,2.209,6.856
		c0,3.582-1.259,6.614-3.775,9.101c-2.517,2.485-5.661,3.729-9.436,3.729c-2.516,0-4.919-0.549-7.207-1.645
		c-2.289-1.096-4.184-2.605-5.682-4.531l3.526-4.009c2.868,3.234,5.908,4.852,9.123,4.852c2.25,0,4.166-0.723,5.746-2.165
		c1.581-1.444,2.371-3.141,2.371-5.093c0-1.604-0.521-3.032-1.567-4.29c-1.044-1.229-3.401-2.778-7.07-4.649
		c-3.938-2.031-6.616-4.035-8.035-6.015c-1.42-1.978-2.13-4.235-2.13-6.774c0-3.315,1.131-6.067,3.393-8.259
		c2.263-2.192,5.12-3.288,8.575-3.288C963.146,730.991,967.188,732.955,971.259,736.883"/>
	<path clip-path="url(#SVGID_2_)" fill="#FFFFFF" d="M534.84,457.453v-18.175h-11.989v18.303c1.918-0.202,3.853-0.32,5.804-0.32
		C530.771,457.26,532.822,457.338,534.84,457.453"/>
	<path clip-path="url(#SVGID_2_)" fill="#FFFFFF" d="M475.126,488.322v0.447c22.744-11.254,47.624-14.162,47.624-14.162v115.42
		h12.014V474.454c15.731-0.377,37.835,3.915,50.018,6.609c-8.047-9.57-25.321-19.123-49.94-20.518
		c-2.019-0.115-4.07-0.192-6.186-0.192c-1.95,0-3.886,0.118-5.803,0.319C500.085,463.067,480.15,478.837,475.126,488.322"/>
	<path clip-path="url(#SVGID_2_)" fill="#FFFFFF" d="M555.611,427.287v12.02h-6.8v16.255h21.353
		c28.733,0,34.766,13.288,34.766,24.435c0,7.447-3.002,13.44-8.923,17.814c-5.546,4.095-13.409,6.172-23.372,6.172h-23.823v16.255
		h25.17c12.57,0,21.649,1.894,27.757,5.794c6.589,4.213,9.93,11.165,9.93,20.662c0,12.479-6.734,27.354-38.81,27.354h-24.047v16.255
		h6.8v10.778h8.553v-10.778h11.614c2.055,0,4.072-0.06,6.057-0.171v10.949h8.553v-11.805c2.267-0.332,4.478-0.737,6.611-1.229
		c6.414-1.479,12.483-3.799,18.043-6.895c5.291-2.946,9.335-7.061,12.363-12.58c3.024-5.511,4.559-12.116,4.559-19.633
		c0-9.235-2.821-20.615-8.62-27.027c-5.824-6.429-17.41-9.372-26.536-10.464l-3.523-0.422v-0.203l2.856-0.853
		c9.704-1.184,18.187-6.887,22.59-12.226c4.372-5.296,6.496-14.665,6.496-22.465c0-12.187-4.102-20.955-12.538-26.805
		c-6.388-4.424-13.863-7.254-22.301-8.473v-12.716h-8.553v12.041c-0.446-0.008-0.89-0.021-1.339-0.021h-16.332v-12.02H555.611z"/>
	<polygon clip-path="url(#SVGID_2_)" fill="#FFFFFF" points="690.86,583.5 692.578,583.5 692.578,452.509 689.142,450.7 
		689.142,582.507 566.929,653.068 563.493,655.051 544.576,665.973 422.363,595.414 422.363,584.009 418.927,582.034 
		418.927,597.397 544.576,669.941 545.935,669.156 691.719,584.988 	"/>
	<path clip-path="url(#SVGID_2_)" fill="#FFFFFF" d="M422.363,573.57l133.16,76.88c1.141-0.645,2.303-1.302,3.472-1.963
		l-114.279-65.979l-3.436-1.984l-18.917-10.922V428.483l144.566-83.466l11.668,6.737c1.097-0.662,2.221-1.34,3.36-2.028
		l-15.028-8.677l-148.002,85.45v145.176l3.436,1.999V573.57z"/>
	<path clip-path="url(#SVGID_2_)" fill="#FFFFFF" d="M589.282,353.955c-1.17,0.676-2.313,1.336-3.436,1.984l-144.567,83.486v130.812
		l3.437,1.815V441.388l122.213-70.559l3.436-1.984l18.917-10.922l122.213,70.56v11.84l3.437,1.549v-15.373L589.282,353.955z"/>
	<polygon clip-path="url(#SVGID_2_)" fill="#FFFFFF" points="711.496,450.327 577.067,372.714 573.709,374.743 689.172,441.406 
		692.579,443.373 711.496,454.294 711.496,595.414 566.929,678.878 555.765,672.432 552.223,674.356 566.929,682.846 
		714.932,597.398 714.932,452.223 711.496,450.26 	"/>
</g>
</svg>
