<svg width="207" height="207" viewBox="0 0 207 207" fill="none" xmlns="http://www.w3.org/2000/svg">
<g opacity="0.25">
<path d="M78.65 57.0938L81.65 54.0974C82.875 52.8739 84.525 52.1872 86.25 52.1872H152.375C166.525 52.1872 178 40.726 178 26.5931C178 12.4602 166.525 0.999023 152.375 0.999023H106.137C91.2875 0.999023 79.25 13.022 79.25 27.8541V45.2955C79.25 47.0184 78.5625 48.6665 77.35 49.8775L75.6875 51.538C74.475 52.749 72.825 53.4357 71.1 53.4357H52.375C38.9125 53.4357 28 64.335 28 77.7813C28 91.2276 38.9125 102.127 52.375 102.127H67.9625C69.6875 102.127 71.3375 102.813 72.55 104.025L77.3375 108.807C78.55 110.017 79.2375 111.665 79.2375 113.388V149.195C79.2375 150.918 78.55 152.566 77.3375 153.778L74.7125 156.398C73.5 157.61 71.85 158.297 70.125 158.297H52.375C38.9125 158.309 28 169.209 28 182.655C28 196.1 38.9125 207 52.375 207C65.8375 207 76.75 196.1 76.75 182.655V165.588C76.75 163.864 77.4375 162.217 78.65 161.006L80.7 158.958C81.9125 157.748 83.5625 157.061 85.2875 157.061H112.863C127.013 157.061 138.488 145.599 138.488 131.466C138.488 117.334 127.013 105.872 112.863 105.872H85.6125C83.8875 105.872 82.2375 105.186 81.025 103.975L78.65 101.603C77.4375 100.391 76.75 98.731 76.75 97.0206V61.6757C76.75 59.9528 77.4375 58.3048 78.65 57.0938Z" fill="#F39800"/>
<path d="M161.55 147.647C152.487 147.647 145.15 140.306 145.15 131.266C145.15 122.214 152.5 114.886 161.55 114.886C170.612 114.886 177.95 122.227 177.95 131.266C177.95 140.306 170.612 147.647 161.55 147.647Z" fill="#F39800"/>
</g>
</svg>
