<?xml version="1.0" encoding="utf-8"?>
<!-- Generator: Adobe Illustrator 24.0.0, SVG Export Plug-In . SVG Version: 6.00 Build 0)  -->
<svg version="1.1" id="图层_1" xmlns="http://www.w3.org/2000/svg" xmlns:xlink="http://www.w3.org/1999/xlink" x="0px" y="0px"
	 viewBox="0 0 80 80" style="enable-background:new 0 0 80 80;" xml:space="preserve">
<style type="text/css">
	.st0{fill:#F99F00;}
</style>
<title>画板 4 副本 2</title>
<g>
	<polygon class="st0" points="45.7,42.7 45.7,45.7 57.1,45.7 57.1,34.3 45.7,34.3 45.7,37.3 	"/>
	<path class="st0" d="M57.1,11.4V0C44.5,0,34.3,10.2,34.3,22.8c0,0,0,0,0,0H22.9v11.4h22.9V22.9C45.7,16.5,50.8,11.4,57.1,11.4
		C57.1,11.4,57.1,11.4,57.1,11.4z"/>
	<path class="st0" d="M37.3,45.7h-3.1v11.4c0,6.3-5.1,11.4-11.4,11.4V80c6.6,0,12.8-2.8,17.1-7.7c1-1.1,1.9-2.4,2.7-3.7
		c2-3.5,3.1-7.4,3.1-11.4V45.7H37.3z"/>
</g>
</svg>
