<svg width="128" height="105" viewBox="0 0 128 105" fill="none" xmlns="http://www.w3.org/2000/svg">
<path d="M49.6023 43.1418H20.4536C18.4918 43.1418 16.7262 42.013 15.8924 40.2297L0.476134 7.16576C-1.07694 3.82828 1.35893 0 5.03726 0H34.186C36.1478 0 37.9134 1.12885 38.7471 2.91211L54.1634 35.9924C55.7165 39.3299 53.2806 43.1582 49.6023 43.1582V43.1418Z" fill="#F39800"/>
<path d="M122.909 0H93.7602C91.7984 0 90.0328 1.12885 89.1991 2.91211L73.7828 35.9924C72.2297 39.3299 74.6656 43.1582 78.3439 43.1582H107.493C109.454 43.1582 111.22 42.0293 112.054 40.2461L127.47 7.16576C129.023 3.82828 126.587 0 122.909 0Z" fill="#F39800"/>
<path d="M78.3576 61.8403H107.506C109.468 61.8403 111.234 62.9692 112.067 64.7524L127.484 97.8327C129.037 101.17 126.601 104.999 122.923 104.999H93.7739C91.8121 104.999 90.0465 103.87 89.2127 102.086L73.7964 69.0061C72.2434 65.6686 74.6792 61.8403 78.3576 61.8403Z" fill="#F39800"/>
<path d="M5.03726 104.999H34.186C36.1478 104.999 37.9134 103.87 38.7471 102.086L54.1634 69.0061C55.7165 65.6686 53.2806 61.8403 49.6023 61.8403H20.4536C18.4918 61.8403 16.7262 62.9692 15.8924 64.7524L0.476134 97.8327C-1.07694 101.17 1.35893 104.999 5.03726 104.999Z" fill="#F39800"/>
</svg>
