<?xml version="1.0" encoding="utf-8"?>
<svg viewBox="0 0 500 500" xmlns="http://www.w3.org/2000/svg">
  <path
    d="M 251 8 C 116.792 8 8 116.799 8 251 C 8 385.201 116.8 494 251 494 C 385.201 494 494 385.201 494 251 C 494 116.799 385.209 8 251 8 Z"
    fill="#313131" style="transform-origin: 251px 251px;" />
  <path fill="rgba(255,255,255, 0.9)"
    d="M 396.532 135.059 C 395.678 135.52 393.968 136.701 392.617 137.817 C 391.335 138.867 388.202 141.427 385.638 143.396 C 383.564 144.997 381.523 146.639 379.515 148.32 C 378.661 149.042 377.238 150.223 376.312 150.88 C 375.386 151.602 368.693 156.919 361.431 162.697 C 354.17 168.407 346.195 174.775 343.632 176.81 C 341.068 178.779 338.505 180.879 337.864 181.471 C 337.223 181.997 335.801 183.177 334.66 184.031 C 331.884 186.132 318.428 196.831 318 197.226 C 317.787 197.422 312.019 202.017 305.185 207.4 C 298.35 212.783 292.369 217.511 291.943 217.904 C 289.521 219.874 281.689 226.11 273.857 232.345 C 268.945 236.219 264.174 240.026 263.178 240.814 C 262.181 241.536 254.492 247.642 246.091 254.337 C 237.689 261.034 230.639 266.613 230.426 266.809 C 227.152 269.895 221.029 274.031 220.317 273.637 C 219.32 273.112 208.64 266.678 189.486 255.125 C 182.97 251.172 176.444 247.232 169.907 243.308 C 165.423 240.617 157.093 235.563 151.396 232.149 C 145.701 228.67 136.943 223.352 131.816 220.333 C 126.761 217.247 120.283 213.374 117.435 211.667 C 111.241 207.86 109.033 207.335 105.402 208.714 C 102.056 209.961 100.206 211.733 99.352 214.425 C 98.639 216.853 98.639 287.619 99.42 289.458 C 100.347 291.754 103.194 293.921 111.383 298.647 C 115.726 301.143 123.772 305.869 129.182 309.151 C 134.593 312.368 143.779 317.882 149.546 321.294 C 155.312 324.709 163.288 329.501 167.273 331.864 C 171.26 334.227 180.161 339.544 186.995 343.615 C 193.83 347.684 202.517 352.871 206.22 355.102 C 209.921 357.334 214.834 360.222 217.112 361.536 L 221.17 363.965 L 233.487 354.381 C 240.18 349.129 247.513 343.418 249.65 341.71 C 251.786 339.939 256.911 336 261.041 332.783 C 265.171 329.632 269.656 326.153 271.009 324.971 C 272.362 323.856 275.282 321.623 277.417 319.983 C 279.554 318.341 282.117 316.372 283.114 315.584 C 286.673 312.761 288.525 311.317 291.943 308.625 C 293.864 307.117 295.786 305.54 296.214 305.212 C 296.641 304.819 298.563 303.374 300.556 301.931 C 302.479 300.486 304.472 298.976 304.899 298.647 C 306.822 297.007 315.579 290.114 333.664 276.065 C 344.414 267.663 354.383 259.917 355.736 258.801 C 374.177 244.359 403.581 221.449 405.575 220.07 C 410.488 216.788 410.202 219.217 410.273 178.517 C 410.273 157.182 410.059 140.967 409.633 139.917 C 408.565 136.963 404.293 134.206 400.946 134.206 C 399.38 134.272 397.387 134.6 396.532 135.059 Z"
    style="" />
</svg>