<?xml version="1.0" encoding="utf-8"?>
<!-- Generator: Adobe Illustrator 24.0.1, SVG Export Plug-In . SVG Version: 6.00 Build 0)  -->
<svg version="1.1" id="图层_1" xmlns="http://www.w3.org/2000/svg" xmlns:xlink="http://www.w3.org/1999/xlink" x="0px" y="0px"
	 viewBox="0 0 40 40" style="enable-background:new 0 0 40 40;" xml:space="preserve">
<style type="text/css">
	.st0{fill:url(#矩形_16718_1_);}
	.st1{fill-rule:evenodd;clip-rule:evenodd;fill:#FFFFFF;}
	.st2{fill-rule:evenodd;clip-rule:evenodd;fill:#E8E8E8;}
	.st3{fill-rule:evenodd;clip-rule:evenodd;fill:url(#路径_10336_1_);}
	.st4{fill-rule:evenodd;clip-rule:evenodd;fill:#080054;}
	.st5{fill:#080054;}
</style>
<g id="组_26540" transform="translate(-1130 -1070)">
	
		<linearGradient id="矩形_16718_1_" gradientUnits="userSpaceOnUse" x1="858.475" y1="1384.025" x2="858.475" y2="1383.025" gradientTransform="matrix(40 0 0 -40 -33189 56431)">
		<stop  offset="0" style="stop-color:#27E9FF"/>
		<stop  offset="0.193" style="stop-color:#23E1FF"/>
		<stop  offset="0.485" style="stop-color:#19CCFF"/>
		<stop  offset="0.837" style="stop-color:#08ABFF"/>
		<stop  offset="1" style="stop-color:#0099FF"/>
	</linearGradient>
	<path id="矩形_16718" class="st0" d="M1150,1070L1150,1070c11,0,20,9,20,20l0,0c0,11-9,20-20,20l0,0c-11,0-20-9-20-20l0,0
		C1130,1079,1139,1070,1150,1070z"/>
	<g id="组_23686" transform="translate(1136.6 1075.098)">
		<path id="路径_10334" class="st1" d="M21.8,13.2c0-0.1,0.1-0.2,0.1-0.3h1.9v-2.6h-1.5c0-2.2-0.8-4.3-2.4-6
			c-0.2-2.1-2-3.8-4.2-3.8c-1.1,0-2.1,0.4-2.8,1.1C8.4,2.1,5,5.8,5,10.3H3v2.6h2c-2.7,1-4.5,3.6-4.5,6.5c0,3.9,3.1,7,7,7
			c0.9,0,1.7-0.2,2.5-0.5h6c0.8,0.3,1.6,0.5,2.5,0.5c3.9,0,7-3.1,7-7c0,0,0,0,0,0C25.5,16.8,24.1,14.4,21.8,13.2z"/>
		<path id="路径_10335" class="st2" d="M21.8,12.9c1.7,1.3,2.7,3.4,2.7,5.5c0,3.9-3.1,7-7,7c0,0,0,0,0,0H7.7
			c-3.5,0-6.3-2.8-6.3-6.3v0c0-3.5,2.8-6.3,6.3-6.3H21.8L21.8,12.9z M15.7,17.1L15.7,17.1c-0.5,1-1.6,1.6-2.7,1.6
			c-0.3,0-0.6,0-0.8-0.1l0.9,2.7c0.1,0.4,0.5,0.7,1,0.7h3.4c0.4,0,0.8-0.3,1-0.7l0.9-2.7c-0.3,0.1-0.6,0.1-0.8,0.1
			C17.3,18.7,16.2,18.1,15.7,17.1L15.7,17.1z"/>
		
			<linearGradient id="路径_10336_1_" gradientUnits="userSpaceOnUse" x1="-253.6711" y1="283.4658" x2="-253.6711" y2="284.4658" gradientTransform="matrix(8.8772 0 0 -8.8751 2267.4573 2525.3826)">
			<stop  offset="0" style="stop-color:#FFAD00"/>
			<stop  offset="2.800000e-02" style="stop-color:#FEAE00"/>
			<stop  offset="0.565" style="stop-color:#F6CC00"/>
			<stop  offset="0.871" style="stop-color:#F3D700"/>
		</linearGradient>
		<path id="路径_10336" class="st3" d="M20,5.2c0,2.5-2,4.4-4.4,4.4c-2.5,0-4.4-2-4.4-4.4l0,0c0-2.5,2-4.4,4.4-4.4c0,0,0,0,0,0
			C18,0.7,20,2.7,20,5.2z"/>
		<path id="路径_10337" class="st4" d="M7.4,25.1h12.1c1.5,0,3-0.6,4-1.7c1.1-1.1,1.7-2.5,1.7-4c0-0.8-0.2-1.7-0.5-2.4
			c-0.4-0.8-0.9-1.4-1.5-2c-0.7-0.6-1.3-1.3-1.7-2.1h1.6c0.1,0,0.2,0,0.3,0c0.3,0.3,0.5,0.6,0.9,0.9c0.8,0.7,1.5,1.6,2,2.5
			c0.5,1,0.7,2,0.7,3.1c0,2-0.8,3.8-2.2,5.2c-1.4,1.4-3.3,2.2-5.2,2.2H7.4c-2,0-3.8-0.8-5.2-2.2C0.8,23.3,0,21.4,0,19.4
			c0-1.1,0.2-2.1,0.7-3.1c0.5-1,1.1-1.8,2-2.5c0.3-0.3,0.6-0.6,0.9-0.9c0.1,0,0.2,0,0.3,0h1.6c-0.4,0.8-1,1.6-1.7,2.1
			c-0.6,0.5-1.2,1.2-1.5,2c-0.4,0.8-0.5,1.6-0.5,2.4c0,1.5,0.6,3,1.7,4C4.4,24.5,5.9,25.1,7.4,25.1z"/>
		<path id="路径_10338" class="st4" d="M9.5,15.4c0.6,0,1-0.4,1-1v-1.3h-2v1.3C8.5,15,9,15.4,9.5,15.4C9.5,15.4,9.5,15.4,9.5,15.4
			z"/>
		<path id="路径_10339" class="st4" d="M20.1,15.4c0.6,0,1-0.4,1-1v-1.3h-2v1.3C19.1,15,19.5,15.4,20.1,15.4
			C20.1,15.4,20.1,15.4,20.1,15.4z"/>
		<path id="路径_10340" class="st4" d="M22.9,9.4c0.6,0,1.1,0.2,1.5,0.6c0.4,0.4,0.6,1,0.6,1.5c0,0.6-0.2,1.1-0.6,1.5
			c-0.4,0.4-1,0.6-1.5,0.6H3.8c-0.6,0-1.1-0.2-1.5-0.6c-0.4-0.4-0.6-1-0.6-1.5c0-0.6,0.2-1.1,0.6-1.5c0.4-0.4,1-0.6,1.5-0.6H22.9z
			 M23.3,11.2L23.3,11.2c-0.1-0.1-0.2-0.1-0.4-0.1H3.8c-0.1,0-0.3,0.1-0.4,0.1c-0.1,0.1-0.1,0.2-0.1,0.4c0,0.1,0.1,0.3,0.1,0.4
			c0.1,0.1,0.2,0.1,0.4,0.1h19.1c0.1,0,0.3-0.1,0.4-0.1c0.1-0.1,0.1-0.2,0.1-0.4C23.5,11.4,23.4,11.3,23.3,11.2L23.3,11.2z"/>
		<path id="路径_10341" class="st4" d="M23.4,10.3c-0.2-2.3-1.2-4.5-2.8-6.2C20.1,1.7,18,0,15.6,0c-1.1,0-2.2,0.4-3.1,1.1
			c-4.9,0.5-8.7,4.4-9.1,9.3c0.2-0.1,0.3-0.1,0.5-0.1h1.2c0.3-3.3,2.6-6.1,5.8-7.1c-0.1,0.1-0.1,0.2-0.1,0.3C8.9,4.4,7.5,6.1,6.8,8
			C7,8.5,7.4,9,7.8,9.4L7,10.2H23C23.1,10.2,23.3,10.3,23.4,10.3L23.4,10.3z M15.6,1.3L15.6,1.3c2.1,0,3.9,1.7,3.9,3.9
			c0,2.1-1.7,3.9-3.9,3.9c-2.1,0-3.9-1.7-3.9-3.9C11.7,3.1,13.5,1.3,15.6,1.3z M15.6,2.8L15.6,2.8c1.3,0,2.3,1,2.3,2.3c0,0,0,0,0,0
			c0,1.3-1.1,2.3-2.3,2.3c-1.3,0-2.3-1.1-2.3-2.3C13.2,3.9,14.3,2.8,15.6,2.8C15.6,2.8,15.6,2.8,15.6,2.8L15.6,2.8z"/>
		<g id="组_12833" transform="translate(9.02 15.611)">
			<path id="路径_10342" class="st4" d="M6.8,1.5C6.6,2,6.4,2.4,6,2.7C5.3,3.4,4.4,3.8,3.4,3.8c-1,0-1.9-0.4-2.6-1.1
				C0.5,2.4,0.2,2,0,1.5h1.5c0.1,0.1,0.1,0.2,0.2,0.3c0.4,0.4,1,0.7,1.7,0.7c0.6,0,1.2-0.2,1.7-0.7c0.1-0.1,0.2-0.2,0.2-0.3H6.8z"/>
			<path id="路径_10343" class="st4" d="M6.2,1.8C5.2,1.6,4.2,1,3.4,0.2c0,0,0-0.1,0-0.1C3.4,0,3.5,0,3.5,0h5.4C9,0,9,0,9,0.1
				c0,0,0,0.1,0,0.1C8.3,1,7.3,1.6,6.2,1.8z"/>
			<rect id="矩形_13537" x="5.7" y="2" class="st5" width="1" height="4.4"/>
			<path id="路径_10344" class="st4" d="M3.2,2.7l0.9,2.8c0,0.1,0.1,0.1,0.1,0.2c0.1,0,0.1,0.1,0.2,0.1h3.7c0.1,0,0.1,0,0.2-0.1
				c0.1,0,0.1-0.1,0.1-0.2l0.9-2.8l1.3,0.4L9.6,5.9C9.5,6.2,9.3,6.5,9,6.8C8.8,7,8.4,7.1,8.1,7.1H4.4C4,7.1,3.7,7,3.4,6.8
				C3.1,6.5,2.9,6.2,2.8,5.9L1.9,3.1L3.2,2.7z"/>
			<path id="路径_10345" class="st4" d="M12.4,1.5C12.3,2,12,2.4,11.6,2.7C11,3.4,10,3.8,9,3.8c-1,0-1.9-0.4-2.6-1.1
				C6.1,2.4,5.8,2,5.6,1.5h1.5c0.1,0.1,0.1,0.2,0.2,0.3c0.4,0.4,1,0.7,1.7,0.7c0.6,0,1.2-0.2,1.7-0.7c0.1-0.1,0.2-0.2,0.2-0.3H12.4z
				"/>
		</g>
	</g>
</g>
</svg>
